HIERARCHY
ROOT Hips
{
	OFFSET 0.000000 0.000000 0.000000
	CHANNELS 6 Xposition Yposition Zposition Xrotation Yrotation Zrotation
	JOINT LeftUpLeg_virtual
	{
		OFFSET 0.000000 0.000000 0.000000
		CHANNELS 3 Xrotation Yrotation Zrotation
		JOINT LeftUpLeg
		{
			OFFSET 10.205400 -3.823500 0.155100
			CHANNELS 3 Xrotation Yrotation Zrotation
			JOINT LeftLeg
			{
				OFFSET 0.708757 -12.982077 0.567790
				CHANNELS 3 Xrotation Yrotation Zrotation
				JOINT LeftFoot
				{
					OFFSET -0.708756 -10.717838 -2.184338
					CHANNELS 3 Xrotation Yrotation Zrotation
					JOINT LeftToeBase
					{
						OFFSET 0.108149 -7.191104 7.560241
						CHANNELS 3 Xrotation Yrotation Zrotation
						JOINT LeftToe_End
						{
							OFFSET 0.070230 0.081724 4.490308
							CHANNELS 3 Xrotation Yrotation Zrotation
							End Site
							{
								OFFSET 0 0 0
							}
						}
					}
				}
			}
		}
	}
	JOINT RightUpLeg_virtual
	{
		OFFSET 0.000000 0.000000 0.000000
		CHANNELS 3 Xrotation Yrotation Zrotation
		JOINT RightUpLeg
		{
			OFFSET -10.205400 -3.823500 0.005500
			CHANNELS 3 Xrotation Yrotation Zrotation
			JOINT RightLeg
			{
				OFFSET -0.708756 -12.982134 0.610632
				CHANNELS 3 Xrotation Yrotation Zrotation
				JOINT RightFoot
				{
					OFFSET 0.708754 -10.717769 -1.945823
					CHANNELS 3 Xrotation Yrotation Zrotation
					JOINT RightToeBase
					{
						OFFSET -0.108140 -7.191069 7.372968
						CHANNELS 3 Xrotation Yrotation Zrotation
						JOINT RightToe_End
						{
							OFFSET -0.070227 0.081735 4.479403
							CHANNELS 3 Xrotation Yrotation Zrotation
							End Site
							{
								OFFSET 0 0 0
							}
						}
					}
				}
			}
		}
	}
	JOINT Spine_virtual
	{
		OFFSET 0.000000 0.000000 0.000000
		CHANNELS 3 Xrotation Yrotation Zrotation
		JOINT Spine
		{
			OFFSET 0.000000 6.876099 0.125700
			CHANNELS 3 Xrotation Yrotation Zrotation
			JOINT Spine1
			{
				OFFSET 0.000000 5.730043 0.104720
				CHANNELS 3 Xrotation Yrotation Zrotation
				JOINT Spine1_split
				{
					OFFSET 0.000000 5.730043 0.104720
					CHANNELS 3 Xrotation Yrotation Zrotation
					JOINT Spine2
					{
						OFFSET 0.000000 5.730043 0.104720
						CHANNELS 3 Xrotation Yrotation Zrotation
						JOINT Neck_virtual
						{
							OFFSET 0.000000 0.000000 0.000000
							CHANNELS 3 Xrotation Yrotation Zrotation
							JOINT Neck
							{
								OFFSET 0.000000 10.314075 0.188496
								CHANNELS 3 Xrotation Yrotation Zrotation
								JOINT Head
								{
									OFFSET 0.000000 7.643700 -2.377400
									CHANNELS 3 Xrotation Yrotation Zrotation
									JOINT HeadTop_End
									{
										OFFSET 0.000000 43.788605 -13.619600
										CHANNELS 3 Xrotation Yrotation Zrotation
										End Site
										{
											OFFSET 0 0 0
										}
									}
								}
							}
						}
						JOINT LeftShoulder_virtual
						{
							OFFSET 0.000000 0.000000 0.000000
							CHANNELS 3 Xrotation Yrotation Zrotation
							JOINT LeftShoulder
							{
								OFFSET 2.196100 4.412489 0.087492
								CHANNELS 3 Xrotation Yrotation Zrotation
								JOINT LeftShoulder_split
								{
									OFFSET 2.196100 4.412489 0.087492
									CHANNELS 3 Xrotation Yrotation Zrotation
									JOINT LeftArm
									{
										OFFSET 8.771219 -2.981674 -0.026999
										CHANNELS 3 Xrotation Yrotation Zrotation
										JOINT LeftForeArm
										{
											OFFSET 8.512804 0.000000 -0.000000
											CHANNELS 3 Xrotation Yrotation Zrotation
											JOINT LeftHand
											{
												OFFSET 18.484802 0.000000 -0.000000
												CHANNELS 3 Xrotation Yrotation Zrotation
												End Site
												{
													OFFSET 0 0 0
												}
											}
										}
									}
								}
							}
						}
						JOINT RightShoulder_virtual
						{
							OFFSET 0.000000 0.000000 0.000000
							CHANNELS 3 Xrotation Yrotation Zrotation
							JOINT RightShoulder
							{
								OFFSET -2.196100 4.412496 0.070690
								CHANNELS 3 Xrotation Yrotation Zrotation
								JOINT RightShoulder_split
								{
									OFFSET -2.196100 4.412496 0.070690
									CHANNELS 3 Xrotation Yrotation Zrotation
									JOINT RightArm
									{
										OFFSET -8.771282 -2.981682 -0.094208
										CHANNELS 3 Xrotation Yrotation Zrotation
										JOINT RightForeArm
										{
											OFFSET -8.494598 0.000000 0.000000
											CHANNELS 3 Xrotation Yrotation Zrotation
											JOINT RightHand
											{
												OFFSET -18.483803 0.000000 0.000001
												CHANNELS 3 Xrotation Yrotation Zrotation
												End Site
												{
													OFFSET 0 0 0
												}
											}
										}
									}
								}
							}
						}
					}
				}
			}
		}
	}
}
MOTION
Frames: 4
Frame Time: 0.03333333
4.071721 28.787888 0.279184 0.000000 0.000000 0.000000 9.498740 -0.288053 -10.807260 -49.405371 -11.998800 35.063558 51.578392 -4.033135 -6.309405 -6.286876 2.149184 -19.816090 -1.400524 0.286015 0.940067 0.000000 0.000000 0.000000 10.164298 -1.252906 -11.449315 -29.096118 -24.047684 5.891975 47.552846 12.436734 4.955938 -27.350031 -16.629523 -9.187100 0.682691 0.046150 -2.619220 0.000000 0.000000 0.000000 8.833794 0.735455 -11.740130 7.703943 -3.437795 -7.086853 5.372534 -1.760368 -6.252192 1.297028 0.931667 0.579106 0.000000 0.000000 0.000000 7.735691 -1.749119 -6.365875 -6.734841 0.422736 -6.764764 -29.690207 -12.537400 13.299568 0.000000 0.000000 0.000000 6.747540 -1.513080 -6.037937 0.895255 -5.078615 -7.558570 -1.059024 -3.994403 0.351749 -27.366652 7.782099 -19.383659 2.480807 -59.048051 2.298568 0.000000 0.000000 0.000000 6.503275 -1.878622 -6.033786 1.874218 -1.899971 4.228947 6.464251 4.231547 -3.066868 25.026788 -8.658091 81.098155 8.884883 80.452928 -7.893566 0.000000 0.000000 0.000000 
4.134362 28.468491 -0.164640 0.000000 0.000000 0.000000 9.194235 -1.506629 -10.092797 -50.423858 -12.882165 34.699178 53.525054 -3.157890 -6.454073 -5.928214 2.552007 -19.711333 -0.774969 0.340588 1.030725 0.000000 0.000000 0.000000 9.782521 -2.281551 -10.761044 -31.286703 -22.700976 6.054456 49.725474 11.626553 4.741172 -27.552293 -16.914644 -9.356532 0.570645 0.139289 -2.911531 0.000000 0.000000 0.000000 8.465004 -0.496180 -11.181971 8.533223 -2.996114 -6.613438 5.902793 -1.495073 -5.955893 1.365639 0.934249 0.623839 0.000000 0.000000 0.000000 8.020336 -1.515862 -6.090751 -5.813381 0.296793 -6.610298 -28.709771 -11.959549 12.963944 0.000000 0.000000 0.000000 7.153777 -1.340380 -5.922594 0.942098 -5.275925 -8.446802 -0.877372 -4.023835 0.568918 -24.438779 12.096489 -22.889960 2.066909 -56.658007 1.977229 0.000000 0.000000 0.000000 7.071688 -1.597768 -5.738037 1.867922 -0.775914 5.039060 6.128671 3.833293 -3.076638 21.967591 -5.582875 79.510676 6.433003 76.560328 -5.532639 0.000000 0.000000 0.000000 
4.150171 28.258095 -0.542181 0.000000 0.000000 0.000000 8.863098 -2.569902 -9.482803 -50.915512 -13.487611 34.429631 54.608879 -2.111710 -6.644065 -5.739663 3.002491 -19.485430 -0.249093 0.390898 0.913570 0.000000 0.000000 0.000000 9.297924 -3.238177 -10.149835 -33.004205 -21.422139 6.288452 51.086649 10.786310 4.604862 -27.469064 -17.033160 -9.307062 0.726616 0.229860 -3.076633 0.000000 0.000000 0.000000 8.041849 -1.831899 -10.674642 9.180626 -2.648475 -6.257995 6.293699 -1.278905 -5.696882 1.408541 0.996141 0.491190 0.000000 0.000000 0.000000 8.157268 -1.333123 -5.828800 -5.044048 0.288096 -6.497967 -27.168350 -11.278831 12.784777 0.000000 0.000000 0.000000 7.399753 -1.195432 -5.829411 0.984592 -5.425783 -9.293611 -0.927210 -3.721665 0.820892 -21.474627 15.134683 -26.860772 1.557757 -53.299166 1.576997 0.000000 0.000000 0.000000 7.520889 -1.357295 -5.495482 1.801137 0.260020 5.861885 5.767825 3.543997 -2.990255 18.883048 -2.689905 77.703586 5.070604 72.894497 -4.293702 0.000000 0.000000 0.000000 
4.117259 28.167665 -0.832350 0.000000 0.000000 0.000000 8.411372 -3.493182 -9.000682 -50.947959 -13.902487 34.300022 55.008312 -1.155091 -6.807863 -5.427831 3.287563 -19.363916 0.017905 0.414240 0.672852 0.000000 0.000000 0.000000 8.767991 -4.119984 -9.667656 -34.130800 -20.203196 6.695407 51.567477 9.950147 4.485606 -26.936647 -17.035291 -8.998270 0.809130 0.290546 -3.120302 0.000000 0.000000 0.000000 7.554400 -3.250144 -10.230119 9.565970 -2.385303 -6.024127 6.491573 -1.118480 -5.490909 1.357330 1.161069 0.288028 0.000000 0.000000 0.000000 8.092083 -1.192511 -5.614108 -4.400124 0.330733 -6.413688 -25.075998 -10.629514 12.807459 0.000000 0.000000 0.000000 7.450749 -1.082263 -5.763611 1.018454 -5.456859 -10.090188 -1.090903 -3.326084 1.008677 -18.631684 16.790692 -30.896805 1.109591 -49.497766 1.224201 0.000000 0.000000 0.000000 7.782534 -1.153505 -5.330789 1.684935 1.152843 6.721442 5.576588 3.432507 -2.819380 15.831895 -0.011055 75.910511 4.186852 69.482469 -3.543857 0.000000 0.000000 0.000000 
